HIERARCHY
ROOT hip
{
	OFFSET 0.000000 0.000000 0.000000 
	CHANNELS 6 Xposition Yposition Zposition Xrotation Zrotation Yrotation
	JOINT abdomen
	{
		OFFSET 0.000000 3.402643 0.000000 
		CHANNELS 3 Xrotation Zrotation Yrotation
		JOINT chest
		{
			OFFSET 0.000000 8.438565 -0.680529 
			CHANNELS 3 Xrotation Zrotation Yrotation
			JOINT neck
			{
				OFFSET 0.000000 10.207942 -0.272212 
				CHANNELS 3 Xrotation Zrotation Yrotation
				JOINT head
				{
					OFFSET 0.000000 3.130431 0.000000 
					CHANNELS 3 Xrotation Zrotation Yrotation
					End Site
					{
						OFFSET 0.000000 3.130435 0.000000 
					}
				}
			}
			JOINT lCollar
			{
				OFFSET 3.470700 6.669187 -0.816635 
				CHANNELS 3 Yrotation Zrotation Xrotation
				JOINT lShldr
				{
					OFFSET 3.198488 0.000000 0.000000 
					CHANNELS 3 Zrotation Yrotation Xrotation
					JOINT lForeArm
					{
						OFFSET 10.139888 0.000000 0.000000 
						CHANNELS 3 Yrotation Zrotation Xrotation
						JOINT lHand
						{
							OFFSET 8.370511 0.000000 0.000000 
							CHANNELS 3 Zrotation Yrotation Xrotation
							End Site
							{
								OFFSET 4.083176 0.000000 0.000000 
							}
						}
					}
				}
			}
			JOINT rCollar
			{
				OFFSET -3.470700 6.669187 -0.816635 
				CHANNELS 3 Yrotation Zrotation Xrotation
				JOINT rShldr
				{
					OFFSET -3.198488 0.000000 0.000000 
					CHANNELS 3 Zrotation Yrotation Xrotation
					JOINT rForeArm
					{
						OFFSET -10.139888 0.000000 0.000000 
						CHANNELS 3 Yrotation Zrotation Xrotation
						JOINT rHand
						{
							OFFSET -8.370511 0.000000 0.000000 
							CHANNELS 3 Zrotation Yrotation Xrotation
							End Site
							{
								OFFSET -4.083176 0.000000 0.000000 
							}
						}
					}
				}
			}
		}
	}
	JOINT lThigh
	{
		OFFSET 5.308129 -1.633274 1.361059 
		CHANNELS 3 Xrotation Zrotation Yrotation
		JOINT lShin
		{
			OFFSET -2.041588 -20.007561 0.000000 
			CHANNELS 3 Xrotation Zrotation Yrotation
			JOINT lFoot
			{
				OFFSET 0.000000 -19.190928 -1.224953 
				CHANNELS 3 Xrotation Yrotation Zrotation
				End Site
				{
					OFFSET 0.000000 -2.449906 4.627600 
				}
			}
		}
	}
	JOINT rThigh
	{
		OFFSET -5.308129 -1.633274 1.361059 
		CHANNELS 3 Xrotation Zrotation Yrotation
		JOINT rShin
		{
			OFFSET 2.041588 -20.007561 0.000000 
			CHANNELS 3 Xrotation Zrotation Yrotation
			JOINT rFoot
			{
				OFFSET 0.000000 -19.190928 -1.224953 
				CHANNELS 3 Xrotation Yrotation Zrotation
				End Site
				{
					OFFSET 0.000000 -2.449906 4.627600 
				}
			}
		}
	}
}
MOTION
Frames: 10
Frame Time: 0.016667
0.513673 51.921478 -0.703498 -12.867433 -0.838045 3.750312 28.156052 0.007594 1.052713 0.356491 2.421753 -0.918279 -6.241911 -2.572483 0.231212 12.901202 2.554446 -3.264568 -3.140249 -11.939502 -0.622495 -53.033764 4.688196 -7.565553 -26.934038 -5.000000 37.279152 -22.884708 -8.552986 20.776606 2.307600 15.498923 -0.820410 60.958626 8.264525 9.846170 94.312561 -5.000000 1.470608 -10.753837 6.003276 -12.003581 21.033331 19.540243 11.558919 2.913366 -6.574088 -0.637214 -4.385128 5.699996 -10.591269 23.040998 -6.845511 -20.607647 4.037433 1.712276 0.114795 -6.912457 -5.475598 8.822603 
0.516832 51.921478 -0.697978 -12.885686 -0.818556 3.750314 28.175230 0.000299 1.039421 0.346922 2.402222 -0.908515 -6.241834 -2.553172 0.228291 12.930499 2.554446 -3.264567 -3.140031 -11.919997 -0.621489 -53.032230 4.684289 -7.544126 -26.933512 -5.000000 37.267147 -22.875385 -8.543320 20.750980 2.307600 15.498923 -0.820410 60.968712 8.249618 9.843649 94.322784 -5.000000 1.483495 -10.760419 5.993644 -11.992451 21.049547 19.509487 11.533378 2.913360 -6.574060 -0.617717 -4.376278 5.727082 -10.580063 23.071829 -6.874949 -20.605963 4.048404 1.712807 0.095825 -6.909515 -5.407892 8.841987 
0.519943 51.920624 -0.693309 -12.884772 -0.808829 3.730786 28.155373 -0.017772 1.032706 0.336746 2.402218 -0.908507 -6.232030 -2.543516 0.226831 12.940701 2.554471 -3.254812 -3.140031 -11.919997 -0.621489 -53.021793 4.695317 -7.523798 -26.954105 -5.000000 37.231449 -22.850386 -8.546115 20.764423 2.329837 15.498524 -0.829813 60.978802 8.234713 9.841127 94.322388 -5.000000 1.496280 -10.752820 6.018168 -11.976545 21.037045 19.507799 11.542367 2.912945 -6.595638 -0.617881 -4.381772 5.740089 -10.564422 23.079401 -6.884419 -20.638763 4.051271 1.704584 0.115274 -6.867905 -5.409203 8.820617 
0.523021 51.919197 -0.689208 -12.865736 -0.818583 3.721020 28.116405 -0.032954 1.048818 0.336235 2.411979 -0.918263 -6.212499 -2.543516 0.226831 12.941572 2.554520 -3.235300 -3.149906 -11.929750 -0.621992 -53.013645 4.716109 -7.532672 -26.987282 -5.000000 37.188133 -22.804966 -8.543434 20.782139 2.349222 15.488770 -0.829308 60.988884 8.219808 9.838597 94.321877 -5.000000 1.511621 -10.750237 6.059720 -11.972328 21.036991 19.507738 11.552409 2.913299 -6.606189 -0.627700 -4.406053 5.787036 -10.522526 23.051546 -6.874871 -20.645956 4.035795 1.692399 0.094890 -6.812716 -5.383681 8.801275 
0.525515 51.918064 -0.685359 -12.845927 -0.818602 3.701491 28.087362 -0.038997 1.068352 0.325542 2.421736 -0.937776 -6.183202 -2.543516 0.226831 12.942991 2.544819 -3.215790 -3.161842 -11.938964 -0.632034 -53.005527 4.744702 -7.535660 -27.020456 -5.000000 37.144821 -22.760900 -8.537011 20.807327 2.368607 15.479017 -0.828804 60.998970 8.204903 9.836064 94.321617 -5.000000 1.519291 -10.738042 6.103296 -11.968091 21.049274 19.509159 11.583590 2.902984 -6.621463 -0.646382 -4.436325 5.817701 -10.498550 23.048403 -6.884372 -20.658787 4.015133 1.691874 0.084061 -6.795210 -5.329494 8.793883 
0.525675 51.918064 -0.682523 -12.853261 -0.789400 3.662435 28.086353 -0.082427 1.069779 0.306116 2.411971 -0.937777 -6.153867 -2.533860 0.225370 12.963391 2.544868 -3.196278 -3.171497 -11.929211 -0.631532 -53.019180 4.796104 -7.558527 -27.037043 -5.000000 37.121128 -22.718792 -8.493711 20.842321 2.397757 15.469260 -0.828299 61.019135 8.175097 9.830984 94.312141 -5.000000 1.493014 -10.714018 6.178649 -11.908708 21.087666 19.469114 11.627593 2.867178 -6.647743 -0.633016 -4.426272 5.785414 -10.501702 23.068773 -6.913803 -20.657125 3.971528 1.693989 0.091399 -6.747155 -5.359593 8.781318 
0.525834 51.918064 -0.679682 -12.851488 -0.769942 3.623244 28.075735 -0.116502 1.074826 0.276924 2.402205 -0.937778 -6.114767 -2.524205 0.223909 12.983791 2.544916 -3.176766 -3.190807 -11.909702 -0.630526 -53.033615 4.853354 -7.588377 -27.062206 -5.000000 37.093636 -22.681303 -8.455344 20.889463 2.417141 15.459503 -0.827794 61.039291 8.145296 9.825886 94.302353 -5.000000 1.466097 -10.680329 6.242914 -11.864658 21.119171 19.421600 11.657904 2.854708 -6.631832 -0.632023 -4.422235 5.768625 -10.520048 23.095842 -6.952799 -20.628334 3.918863 1.692239 0.098465 -6.715927 -5.362925 8.780219 
0.528140 51.918064 -0.679245 -12.841198 -0.769975 3.584185 28.065929 -0.113815 1.066230 0.248548 2.392449 -0.918265 -6.085432 -2.514549 0.222449 12.993991 2.544940 -3.167010 -3.198517 -11.910247 -0.620986 -53.018902 4.914475 -7.616571 -27.087944 -5.000000 37.086308 -22.684763 -8.477195 20.916756 2.453650 15.469668 -0.818895 61.029816 8.102566 9.804174 94.312431 -5.000000 1.466077 -10.681964 6.291506 -11.813708 21.128372 19.411489 11.706633 2.838053 -6.628302 -0.600832 -4.418186 5.719202 -10.540551 23.122797 -6.963215 -20.621006 3.845911 1.712788 0.094775 -6.697875 -5.314968 8.802099 
0.530983 51.918064 -0.679407 -12.821878 -0.779747 3.554890 28.046434 -0.110453 1.057912 0.230744 2.382700 -0.879237 -6.065863 -2.504894 0.220988 13.014389 2.544988 -3.147498 -3.208282 -11.910247 -0.620986 -52.994473 4.976915 -7.643048 -27.109116 -5.000000 37.070797 -22.698111 -8.511724 20.932262 2.502768 15.489170 -0.819905 61.020344 8.059827 9.782482 94.333122 -5.000000 1.474519 -10.694201 6.336303 -11.774459 21.149998 19.402964 11.756403 2.805254 -6.621080 -0.607796 -4.408308 5.719321 -10.551265 23.137440 -6.952837 -20.618309 3.754422 1.702650 0.080120 -6.694884 -5.283558 8.794587 
0.534297 51.918064 -0.681307 -12.802684 -0.789510 3.535358 28.037144 -0.084987 1.048242 0.201947 2.372939 -0.859715 -6.026378 -2.506354 0.211342 13.024055 2.554763 -3.137741 -3.220104 -11.909698 -0.630526 -52.981339 5.057600 -7.680835 -27.134867 -5.000000 37.059372 -22.702246 -8.549740 20.944881 2.554299 15.488734 -0.829307 61.010864 8.017078 9.760803 94.343140 -5.000000 1.485442 -10.712218 6.347199 -11.748502 21.149483 19.374121 11.778887 2.796098 -6.593041 -0.577431 -4.429672 5.718689 -10.561985 23.153393 -6.963318 -20.571018 3.668406 1.750581 0.046891 -6.651079 -5.213954 8.815256 
